<svg version="1.1" id="Layer_1" xmlns="http://www.w3.org/2000/svg" xmlns:xlink="http://www.w3.org/1999/xlink" x="0px" y="0px"
	 width="100%" viewBox="0 0 500 500" enable-background="new 0 0 500 500" xml:space="preserve">
<path fill="#FFFFFF" opacity="1.000000" stroke="none" 
	d="
M232.000000,501.000000 
	C154.666687,501.000000 77.833366,501.000000 1.000041,501.000000 
	C1.000027,334.333405 1.000027,167.666779 1.000014,1.000131 
	C167.666565,1.000087 334.333130,1.000087 500.999756,1.000044 
	C500.999847,167.666519 500.999847,334.333038 500.999939,500.999786 
	C411.500000,501.000000 322.000000,501.000000 232.000000,501.000000 
M32.053837,415.465729 
	C57.577171,436.660248 84.381584,437.993927 111.823509,419.438629 
	C123.967598,411.227173 133.820587,400.652161 142.731415,389.165161 
	C159.674301,367.323975 172.574631,343.112061 184.049698,318.080627 
	C185.612518,314.671509 187.237640,311.290955 188.975174,307.596893 
	C208.279236,314.561493 226.939514,321.131683 245.479782,328.024719 
	C267.670502,336.274963 289.309387,345.715607 309.336273,358.549561 
	C314.964294,362.156189 319.672028,366.015259 320.857178,373.228851 
	C321.632446,377.947815 323.350128,382.554840 325.012970,387.076996 
	C329.886322,400.330322 334.800537,413.573029 340.024109,426.690338 
	C341.415344,430.184021 344.574371,433.436890 348.574066,431.827728 
	C351.322968,430.721802 354.648773,427.481598 355.054260,424.793701 
	C356.231171,416.992188 357.180450,408.848755 356.209473,401.091003 
	C353.719818,381.199066 341.460297,366.623596 327.882324,352.997070 
	C326.561188,351.671204 325.393616,349.842804 324.949524,348.050720 
	C322.512085,338.214203 320.252136,328.331696 318.075012,318.433411 
	C316.848785,312.858582 315.899292,307.222900 314.828369,301.631622 
	C325.827606,300.732819 336.089081,300.010193 346.326752,299.037048 
	C384.362732,295.421570 420.795746,286.037994 453.744934,266.240936 
	C467.069672,258.234924 479.008636,247.913895 491.485199,238.522751 
	C492.376495,237.851852 492.501251,236.162567 492.982422,234.946808 
	C491.827698,235.198929 490.592407,235.273270 489.539520,235.750198 
	C488.343201,236.292114 487.303467,237.184601 486.206787,237.940796 
	C464.902374,252.631226 441.664948,263.153503 416.776978,270.101257 
	C384.605927,279.082214 351.700287,281.489807 318.480316,280.946808 
	C315.724945,280.901764 312.978668,280.298126 310.214966,279.952362 
	C306.399963,260.239685 303.167938,240.896118 298.854218,221.796844 
	C289.707397,181.298523 280.209534,140.875458 270.338928,100.547997 
	C268.351593,92.428513 264.654083,84.557961 260.677277,77.145508 
	C257.111145,70.498543 249.394791,68.153717 242.033371,69.907150 
	C235.206268,71.533302 230.970444,76.352119 228.857773,82.475594 
	C221.648972,103.370003 214.544357,124.313980 208.059357,145.441437 
	C197.030396,181.372620 186.462936,217.445923 175.822586,253.495239 
	C174.710464,257.263092 173.343750,258.352386 169.187119,257.310181 
	C158.564926,254.646866 147.813858,252.424118 137.029724,250.499283 
	C124.637390,248.287384 115.120590,256.310455 115.983849,267.937805 
	C116.470245,274.489258 120.310547,279.341583 125.775902,282.161682 
	C135.509415,287.184174 145.539246,291.682465 155.663666,295.871857 
	C159.550980,297.480408 160.359970,299.090973 158.701416,302.797852 
	C151.022339,319.960602 143.963531,337.419128 135.758362,354.323120 
	C127.449875,371.439911 117.343369,387.558777 103.549492,400.967987 
	C83.655457,420.307281 62.255562,423.067230 38.780071,408.470581 
	C29.667910,402.804779 21.682068,395.330719 13.157423,388.713501 
	C11.827906,387.681488 10.360380,386.827271 8.956667,385.890839 
	C8.436463,387.808777 8.571840,388.865967 9.153720,389.534607 
	C16.569523,398.056091 24.049358,406.521851 32.053837,415.465729 
z"/>
<path fill="#CC6EE7" opacity="1.000000" stroke="none" 
	d="
M31.783377,415.233765 
	C24.049358,406.521851 16.569523,398.056091 9.153720,389.534607 
	C8.571840,388.865967 8.436463,387.808777 8.956667,385.890839 
	C10.360380,386.827271 11.827906,387.681488 13.157423,388.713501 
	C21.682068,395.330719 29.667910,402.804779 38.780071,408.470581 
	C62.255562,423.067230 83.655457,420.307281 103.549492,400.967987 
	C117.343369,387.558777 127.449875,371.439911 135.758362,354.323120 
	C143.963531,337.419128 151.022339,319.960602 158.701416,302.797852 
	C160.359970,299.090973 159.550980,297.480408 155.663666,295.871857 
	C145.539246,291.682465 135.509415,287.184174 125.775902,282.161682 
	C120.310547,279.341583 116.470245,274.489258 115.983849,267.937805 
	C115.120590,256.310455 124.637390,248.287384 137.029724,250.499283 
	C147.813858,252.424118 158.564926,254.646866 169.187119,257.310181 
	C173.343750,258.352386 174.710464,257.263092 175.822586,253.495239 
	C186.462936,217.445923 197.030396,181.372620 208.059357,145.441437 
	C214.544357,124.313980 221.648972,103.370003 228.857773,82.475594 
	C230.970444,76.352119 235.206268,71.533302 242.033371,69.907150 
	C249.394791,68.153717 257.111145,70.498543 260.677277,77.145508 
	C264.654083,84.557961 268.351593,92.428513 270.338928,100.547997 
	C280.209534,140.875458 289.707397,181.298523 298.854218,221.796844 
	C303.167938,240.896118 306.399963,260.239685 310.214966,279.952362 
	C312.978668,280.298126 315.724945,280.901764 318.480316,280.946808 
	C351.700287,281.489807 384.605927,279.082214 416.776978,270.101257 
	C441.664948,263.153503 464.902374,252.631226 486.206787,237.940796 
	C487.303467,237.184601 488.343201,236.292114 489.539520,235.750198 
	C490.592407,235.273270 491.827698,235.198929 492.982422,234.946808 
	C492.501251,236.162567 492.376495,237.851852 491.485199,238.522751 
	C479.008636,247.913895 467.069672,258.234924 453.744934,266.240936 
	C420.795746,286.037994 384.362732,295.421570 346.326752,299.037048 
	C336.089081,300.010193 325.827606,300.732819 314.828369,301.631622 
	C315.899292,307.222900 316.848785,312.858582 318.075012,318.433411 
	C320.252136,328.331696 322.512085,338.214203 324.949524,348.050720 
	C325.393616,349.842804 326.561188,351.671204 327.882324,352.997070 
	C341.460297,366.623596 353.719818,381.199066 356.209473,401.091003 
	C357.180450,408.848755 356.231171,416.992188 355.054260,424.793701 
	C354.648773,427.481598 351.322968,430.721802 348.574066,431.827728 
	C344.574371,433.436890 341.415344,430.184021 340.024109,426.690338 
	C334.800537,413.573029 329.886322,400.330322 325.012970,387.076996 
	C323.350128,382.554840 321.632446,377.947815 320.857178,373.228851 
	C319.672028,366.015259 314.964294,362.156189 309.336273,358.549561 
	C289.309387,345.715607 267.670502,336.274963 245.479782,328.024719 
	C226.939514,321.131683 208.279236,314.561493 188.975174,307.596893 
	C187.237640,311.290955 185.612518,314.671509 184.049698,318.080627 
	C172.574631,343.112061 159.674301,367.323975 142.731415,389.165161 
	C133.820587,400.652161 123.967598,411.227173 111.823509,419.438629 
	C84.381584,437.993927 57.577171,436.660248 31.783377,415.233765 
M285.282562,257.161926 
	C272.790863,214.676407 260.299194,172.190887 247.886551,129.974136 
	C234.198959,175.181046 220.506836,220.402939 206.705811,265.984467 
	C234.408279,271.943756 262.715027,276.836426 292.076721,279.160217 
	C289.742004,271.523895 287.660522,264.715851 285.282562,257.161926 
M307.512512,336.809357 
	C308.074158,337.111572 308.635803,337.413788 310.024353,338.160950 
	C306.531403,326.647980 303.133087,315.940552 300.096375,305.131531 
	C299.206268,301.963318 297.771912,301.056183 294.576538,300.939636 
	C283.957886,300.552429 273.352692,299.785339 262.744049,299.136414 
	C255.456955,298.690674 248.172668,298.199341 240.887131,297.728363 
	C263.755341,309.713715 286.325470,321.372528 307.512512,336.809357 
M343.535095,412.891022 
	C344.251617,414.152863 344.968109,415.414703 346.185364,417.558380 
	C347.935730,403.899567 340.638550,384.344971 332.686676,381.297211 
	C336.301514,391.927155 339.751556,402.072479 343.535095,412.891022 
z"/>
<path fill="#FFFEFF" opacity="1.000000" stroke="none" 
	d="
M285.430786,257.534851 
	C287.660522,264.715851 289.742004,271.523895 292.076721,279.160217 
	C262.715027,276.836426 234.408279,271.943756 206.705811,265.984467 
	C220.506836,220.402939 234.198959,175.181046 247.886551,129.974136 
	C260.299194,172.190887 272.790863,214.676407 285.430786,257.534851 
z"/>
<path fill="#FEFBFE" opacity="1.000000" stroke="none" 
	d="
M307.250793,336.591919 
	C286.325470,321.372528 263.755341,309.713715 240.887131,297.728363 
	C248.172668,298.199341 255.456955,298.690674 262.744049,299.136414 
	C273.352692,299.785339 283.957886,300.552429 294.576538,300.939636 
	C297.771912,301.056183 299.206268,301.963318 300.096375,305.131531 
	C303.133087,315.940552 306.531403,326.647980 310.024353,338.160950 
	C308.635803,337.413788 308.074158,337.111572 307.250793,336.591919 
z"/>
<path fill="#FBF2FD" opacity="1.000000" stroke="none" 
	d="
M343.368347,412.554413 
	C339.751556,402.072479 336.301514,391.927155 332.686676,381.297211 
	C340.638550,384.344971 347.935730,403.899567 346.185364,417.558380 
	C344.968109,415.414703 344.251617,414.152863 343.368347,412.554413 
z"/>
</svg>